<svg width="256" height="256" viewBox="0 0 256 256" fill="none" xmlns="http://www.w3.org/2000/svg">
<rect width="256" height="256" fill="black"/>
<path fill-rule="evenodd" clip-rule="evenodd" d="M38 121.38V77H48.7044V97.6952H48.9389C51.141 94.331 54.6097 91.7415 60.1836 91.7415C70.3274 91.7415 77.5656 100.443 77.5656 112.972C77.5656 125.988 70.6332 134.202 60.4895 134.202C55.0251 134.202 51.0976 131.929 48.707 128.379V142.073H48.9389C51.141 138.711 54.6097 136.122 60.1836 136.122C70.3274 136.122 77.5656 144.825 77.5656 157.352C77.5656 170.371 70.6332 178.582 60.4895 178.582C54.8442 178.582 50.8377 176.156 48.4725 172.399H48.3068V177.418H38V121.38ZM57.7471 100.353C63.7212 100.353 66.7184 105.532 66.7184 112.972C66.7184 120.72 63.6524 125.267 58.1473 125.267C52.1732 125.267 48.4725 120.577 48.4725 113.206C48.4725 105.764 50.9753 100.353 57.7471 100.353ZM103.952 128.534H104.115C104.35 130.354 104.727 132.22 105.382 133.038H115.689V132.64C114.751 131.916 114.282 130.119 114.282 127.064V106.605C114.282 97.2033 109.388 91.7899 97.2745 91.7899C85.492 91.7899 80.1984 97.996 79.8925 105.043H89.4042C89.733 101.195 92.1669 99.3977 97.2031 99.3977C101.702 99.3977 103.975 101.284 103.975 104.179C103.975 107.237 100.906 107.796 94.2059 108.728C85.2346 109.965 77.9963 112.788 77.9963 121.65C77.9963 129.63 83.8073 133.947 92.0752 133.947C98.9846 133.947 101.913 131.59 103.952 128.534ZM104.186 112.788V118.829C104.186 122.749 100.812 126.505 94.6748 126.505C90.8799 126.505 88.3745 125.175 88.3745 121.418C88.3745 117.641 91.1143 116.402 96.7138 115.143L97.2974 115.006C99.8002 114.42 102.425 113.805 104.186 112.788ZM118.013 92.9088H128.297V98.2992H128.531C130.733 94.6139 134.671 91.7899 140.268 91.7899C145.376 91.7899 149.476 94.6139 151.444 98.837H151.607C154.372 94.4507 158.611 91.7899 163.718 91.7899C172.223 91.7899 177.022 97.2747 177.022 106.045V133.083H166.318V107.864C166.318 103.315 164.047 100.958 160.109 100.958C155.637 100.958 152.871 104.414 152.871 109.733V133.083H142.167V107.864C142.167 103.315 139.893 100.958 135.958 100.958C131.625 100.958 128.72 104.414 128.72 109.733V133.083H118.016V92.9139L118.013 92.9088ZM57.7471 144.736C63.7212 144.736 66.7184 149.915 66.7184 157.357C66.7184 165.102 63.6524 169.652 58.1473 169.652C52.1732 169.652 48.4725 164.962 48.4725 157.592C48.4725 150.149 50.9753 144.736 57.7471 144.736ZM105.293 177.851V173.136H105.058C102.293 176.826 99.1554 178.947 93.4846 178.947C84.5107 178.947 79.4746 173.23 79.4746 164.46V137.653H90.0872V162.663C90.0872 167.376 92.2179 169.942 96.7851 169.942C101.824 169.942 104.89 166.186 104.89 160.844V137.656H115.597V177.848H105.29L105.293 177.851ZM127.899 164.45H117.99C118.622 172.988 125.16 178.633 136.873 178.633C146.946 178.633 153.881 173.781 153.881 165.712C153.881 156.307 146.408 154.418 139.636 153.019C138.693 152.823 137.76 152.652 136.858 152.487C132.268 151.645 128.531 150.96 128.531 148.072C128.531 145.179 131.297 143.617 135.466 143.617C140.034 143.617 142.799 145.179 143.265 149.497H152.945C152.147 141.423 146.245 136.175 135.632 136.175C126.426 136.175 119.188 140.329 119.188 149.031C119.188 157.823 126.263 159.786 133.501 161.185C134.207 161.325 134.908 161.453 135.591 161.578C140.232 162.434 144.114 163.148 144.114 166.502C144.114 169.326 141.443 171.122 136.71 171.122C131.908 171.122 128.603 169.068 127.899 164.45ZM153.542 157.334C153.542 145.414 161.646 136.175 173.454 136.175C186.432 136.175 193.367 146.043 193.367 160.39H164.083C164.881 166.573 168.324 170.422 174.392 170.422C178.562 170.422 180.998 168.533 182.191 165.477H192.735C191.234 172.613 184.862 178.633 174.487 178.633C161.109 178.659 153.542 169.326 153.542 157.334ZM164.246 153.042H182.191C181.888 147.958 178.49 144.41 173.617 144.41C167.949 144.41 165.184 147.792 164.246 153.042ZM205.56 144.56H205.328V138.143H195.019V178.315H205.723V158.718C205.723 150.272 210.762 146.586 217.766 147.287H218V137.954C217.368 137.722 216.642 137.651 215.469 137.651C210.762 137.651 207.996 140.011 205.56 144.56Z" fill="white"/>
</svg>
