<svg width="256" height="256" viewBox="0 0 256 256" fill="none" xmlns="http://www.w3.org/2000/svg">
<rect width="256" height="256" fill="black"/>
<path d="M128.035 86.9546C136.155 86.9476 144.094 89.349 150.848 93.8549C157.603 98.3608 162.869 104.769 165.981 112.268C169.093 119.768 169.911 128.022 168.331 135.986C166.751 143.95 162.845 151.267 157.106 157.011C151.367 162.755 144.053 166.667 136.091 168.254C128.128 169.84 119.873 169.03 112.371 165.924C104.869 162.819 98.4563 157.558 93.9446 150.807C89.433 144.056 87.0248 136.119 87.0248 128C87.0202 122.611 88.0776 117.275 90.1365 112.295C92.1954 107.316 95.2153 102.79 99.0239 98.9786C102.833 95.1667 107.355 92.1428 112.333 90.0796C117.311 88.0165 122.647 86.9546 128.035 86.9546ZM128.035 43C111.222 42.9931 94.7848 47.9723 80.802 57.308C66.8192 66.6437 55.9191 79.9165 49.4803 95.4475C43.0415 110.979 41.3533 128.07 44.629 144.561C47.9048 161.052 55.9976 176.2 67.8836 188.091C79.7697 199.982 94.9152 208.081 111.404 211.364C127.894 214.646 144.986 212.965 160.52 206.533C176.054 200.1 189.331 189.206 198.672 175.227C208.014 161.248 213 144.813 213 128C212.981 105.468 204.025 83.8643 188.096 67.9288C172.167 51.9932 150.567 43.0279 128.035 43Z" fill="#0F74FF"/>
</svg>
