<svg width="256" height="256" viewBox="0 0 256 256" fill="none" xmlns="http://www.w3.org/2000/svg">
<rect width="256" height="256" fill="black"/>
<rect width="256" height="256" fill="url(#paint0_linear_128_6)"/>
<g clip-path="url(#clip0_128_6)">
<path d="M204.086 79.913C196.949 68.6315 187.368 59.051 176.087 51.914C162.177 43.0985 145.685 38 128 38C107.034 38 87.7429 45.1685 72.4474 57.188C70.7464 58.5245 70.5889 61.0445 72.1189 62.5745L95.1364 85.5875C96.3559 86.807 98.2684 86.987 99.6994 86.0195C107.781 80.561 117.519 77.375 128 77.375C133.692 77.375 139.169 78.3155 144.276 80.048C145.541 80.4755 145.914 82.0865 144.974 83.027L118.779 109.221L109.23 118.77L101.801 126.2C94.1824 133.818 94.0294 146.441 101.607 154.1C101.706 154.199 101.801 154.293 101.9 154.392C109.563 161.97 122.181 161.817 129.8 154.199L164.216 119.783L172.973 111.026C173.918 110.081 175.524 110.459 175.952 111.723C177.689 116.831 178.625 122.307 178.625 128C178.625 138.48 175.439 148.218 169.98 156.3C169.013 157.731 169.193 159.644 170.412 160.863L193.425 183.876C194.955 185.406 197.475 185.249 198.812 183.548C210.831 168.252 218 148.961 218 128C218 110.315 212.901 93.8225 204.086 79.913Z" fill="white"/>
<path d="M204.086 79.913C196.949 68.6315 187.368 59.051 176.087 51.914C162.177 43.0985 145.685 38 128 38C107.034 38 87.7429 45.1685 72.4474 57.188C70.7464 58.5245 70.5889 61.0445 72.1189 62.5745L95.1364 85.5875C96.3559 86.807 98.2684 86.987 99.6994 86.0195C107.781 80.561 117.519 77.375 128 77.375C133.692 77.375 139.169 78.3155 144.276 80.048C145.541 80.4755 145.914 82.0865 144.974 83.027L118.779 109.221L109.23 118.77L101.801 126.2C94.1824 133.818 94.0294 146.441 101.607 154.1C101.706 154.199 101.801 154.293 101.9 154.392C109.563 161.97 122.181 161.817 129.8 154.199L164.216 119.783L172.973 111.026C173.918 110.081 175.524 110.459 175.952 111.723C177.689 116.831 178.625 122.307 178.625 128C178.625 138.48 175.439 148.218 169.98 156.3C169.013 157.731 169.193 159.644 170.412 160.863L193.425 183.876C194.955 185.406 197.475 185.249 198.812 183.548C210.831 168.252 218 148.961 218 128C218 110.315 212.901 93.8225 204.086 79.913Z" fill="url(#paint1_linear_128_6)" fill-opacity="0.2"/>
<path d="M160.864 170.412C159.644 169.193 157.732 169.013 156.301 169.98C148.219 175.439 138.481 178.625 128 178.625C121.3 178.625 114.901 177.324 109.046 174.953C96.3335 169.818 86.1815 159.666 81.047 146.954C78.6755 141.099 77.375 134.7 77.375 128C77.375 117.519 80.561 107.781 86.0195 99.6994C86.987 98.2684 86.807 96.3559 85.5875 95.1364L62.5745 72.1234C61.0445 70.5934 58.5245 70.7509 57.188 72.4519C45.1685 87.7474 38 107.034 38 128C38 145.685 43.0985 162.177 51.914 176.087C59.051 187.368 68.6315 196.949 79.913 204.086C93.8225 212.901 110.315 218 128 218C148.966 218 168.257 210.831 183.553 198.812C185.254 197.475 185.411 194.955 183.881 193.425L160.864 170.412Z" fill="white"/>
<path d="M160.864 170.412C159.644 169.193 157.732 169.013 156.301 169.98C148.219 175.439 138.481 178.625 128 178.625C121.3 178.625 114.901 177.324 109.046 174.953C96.3335 169.818 86.1815 159.666 81.047 146.954C78.6755 141.099 77.375 134.7 77.375 128C77.375 117.519 80.561 107.781 86.0195 99.6994C86.987 98.2684 86.807 96.3559 85.5875 95.1364L62.5745 72.1234C61.0445 70.5934 58.5245 70.7509 57.188 72.4519C45.1685 87.7474 38 107.034 38 128C38 145.685 43.0985 162.177 51.914 176.087C59.051 187.368 68.6315 196.949 79.913 204.086C93.8225 212.901 110.315 218 128 218C148.966 218 168.257 210.831 183.553 198.812C185.254 197.475 185.411 194.955 183.881 193.425L160.864 170.412Z" fill="url(#paint2_linear_128_6)" fill-opacity="0.2"/>
</g>
<defs>
<linearGradient id="paint0_linear_128_6" x1="-14.4" y1="-14.4" x2="257.6" y2="257.6" gradientUnits="userSpaceOnUse">
<stop stop-color="#AC5DF3"/>
<stop offset="1" stop-color="#8A26E4"/>
</linearGradient>
<linearGradient id="paint1_linear_128_6" x1="69.3015" y1="35.943" x2="219.758" y2="186.111" gradientUnits="userSpaceOnUse">
<stop stop-color="white"/>
<stop offset="1"/>
</linearGradient>
<linearGradient id="paint2_linear_128_6" x1="36.2368" y1="69.0122" x2="186.694" y2="219.18" gradientUnits="userSpaceOnUse">
<stop stop-color="white"/>
<stop offset="1"/>
</linearGradient>
<clipPath id="clip0_128_6">
<rect width="180" height="180" fill="white" transform="translate(38 38)"/>
</clipPath>
</defs>
</svg>
