<svg width="256" height="256" viewBox="0 0 256 256" fill="none" xmlns="http://www.w3.org/2000/svg">
<rect width="256" height="256" fill="#18723C"/>
<path d="M101.059 142.51L92.1176 147.686L93.7647 150.51L93.6863 150.588C90.549 148.941 86.549 149.647 83.1765 151.608C82.7059 151.843 82.3922 152.078 82 152.314L73.6078 137.804C72.5882 136.157 70 131.608 75.0196 128.627C79.5686 125.961 82.0784 130.196 83.4118 132.627L91.1765 146.196L100.118 140.941L92.0392 127.059C88.1961 120.392 86.6274 118.667 82.0784 117.255C78.1569 116.157 74.4706 117.647 72.3529 118.823C67.8039 121.49 66.0784 125.647 65.9216 129.725C60.9804 126.667 56.7451 127.765 54.1569 129.333C48.5098 132.549 48.2745 136.784 48.2745 138.274L48.1961 138.353L46.3922 135.137L38 140L55.4118 170.117L64.3529 164.941L55.098 148.941C54.0784 147.216 51.2549 142.274 56.3529 139.372C60.8235 136.784 63.4902 141.49 64.5098 143.137L75.1765 161.412C73.7647 165.882 74.1569 171.216 77.2941 176.627C82.8627 186.353 93.3725 188.392 101.608 183.686C106.392 180.941 107.49 176.941 107.412 174.666L107.49 174.588L108.039 175.529C112.667 183.608 106.549 187.294 105.451 188C104.824 188.392 101.529 190.274 98.4706 188.078L88.0392 194.117C91.0196 198.039 98.6274 202.039 109.137 196C116.51 191.686 120.118 185.176 120.275 180.078C120.275 176.706 118.863 173.568 116.353 169.098L101.059 142.51ZM97.7647 174.588C94 176.784 88.902 175.765 86.0784 171.059C83.4902 166.666 85.1373 161.568 88.9804 159.372C92.9804 157.098 97.9216 158.117 100.745 162.823C103.333 167.216 102.157 172.157 97.7647 174.588ZM109.843 107.216C109.686 107.765 108.667 111.372 107.804 114.823C107.176 117.569 106.235 125.49 106.078 126.196C105.922 126.902 106 126.51 105.843 126.823L102.235 120.627C99.5686 116.078 102.078 113.49 106.157 111.059L100.745 101.725C95.5686 104.706 95.6471 108.392 95.6471 110.353L95.5686 110.431L93.7647 107.216L85.3726 112.078L101.294 139.686L110.235 134.51L105.843 126.902L106 127.137C106.078 126.745 106.235 126.196 106.392 125.725C106.392 125.725 109.137 118.118 110 115.372C111.098 111.843 111.569 108.627 111.961 107.843C112.196 107.372 113.373 106.98 114.078 106.431C114.314 106.196 114.235 105.804 114 105.49C113.686 105.176 113.451 104.784 113.216 104.549C113.137 104.392 113.059 104.235 113.059 104.078C113.137 102.745 113.216 101.647 113.294 100.549C113.373 99.2156 113.608 98.4313 114.314 96.3921C114.314 96.3137 114.392 96.3137 114.392 96.3137C115.255 96.3137 116.039 96.0784 116.824 96.6274C116.824 96.6274 116.902 96.7058 116.824 96.7843L116.51 97.647C116.353 98.0391 116.745 98.4313 117.137 98.2744C117.294 98.196 117.451 98.1176 117.529 97.9607C117.765 97.647 117.843 97.2548 117.922 96.9411C118.078 96.1568 117.765 95.5293 117.451 94.9019C117.373 94.8235 117.373 94.6666 117.451 94.5882C117.843 93.8039 118.157 93.098 118.549 92.3921C118.627 92.3137 118.706 92.1568 118.784 92.0784C119.176 91.6862 119.569 91.2156 119.882 90.745C120.98 88.9411 122 87.0588 122.941 85.1764C123.961 83.3725 125.059 81.5686 125.686 79.5294C125.765 79.1372 126 78.8235 126.235 78.5098C126.784 78.7451 126.706 79.1372 126.784 79.5294C126.863 81.2549 127.02 82.9019 127.176 84.6274C127.255 85.4117 127.412 86.2745 127.49 87.2941C127.49 87.4509 127.49 87.6862 127.412 87.8431C126.941 88.9411 127.02 90.3529 127.02 91.6862C127.02 91.8431 127.02 91.9999 127.02 92.2352C127.098 93.1764 126.863 94.0391 126.706 94.9019C126.471 96.0784 126.235 97.2548 126.157 98.3529C126.078 101.098 126.157 103.843 126.078 106.588C126 108 126.627 108.941 127.647 109.804C129.294 111.137 130.784 112.549 132.431 113.961C132.353 114.431 132.353 114.902 132.196 115.294C131.176 117.882 131.098 120.47 131.647 123.216C128.431 124.392 125.765 126.431 123.49 129.333C122.078 131.372 121.137 133.647 120.588 136L117.686 130.902C113.294 133.49 112.667 136.47 112.588 138.51L112.275 138.039L111.098 136L102.157 141.176L103.333 143.216L119.49 171.294L128.431 166.117L118.784 149.647C116.745 146.196 117.686 143.921 120.039 141.882C120.353 144.549 121.137 147.216 122.549 149.647C127.647 158.588 139.098 161.333 147.725 156.314C150.863 154.588 153.294 151.921 154.706 148.627C156.118 145.725 156.745 142.196 156.431 138.353C162.157 142.667 170.157 143.216 176.667 139.529C179.804 137.804 182.235 135.137 183.647 131.843C185.059 128.941 185.686 125.412 185.373 121.569L190.314 130.196L199.255 125.02L189.765 108.627C188.667 106.823 186.157 102.353 191.255 99.294C196.039 96.5489 198.314 100.706 199.569 102.745L209.059 119.216L218 114.039L208.118 95.7646C204.745 89.8039 201.451 88.549 198.941 88.0784C196.51 87.6078 192.667 88.2352 189.686 89.8823C184.353 93.0195 184.039 96.8627 183.882 98.8234L183.804 98.9019L182 95.6862L173.608 100.549L178.471 108.941C172.824 104.706 165.216 104 158.549 107.843C151.882 111.686 148.98 118.902 149.765 125.804C148.275 124.627 146.627 123.765 144.902 123.137C144.902 122.039 144.902 121.02 144.902 120.078C144.98 120.078 145.059 120.078 145.137 120.157C145.373 119.529 145.608 118.902 145.765 118.196C145.922 117.49 146.235 116.784 145.529 116.235C144.824 116.078 144.275 115.843 143.725 115.765C143.098 115.686 142.471 115.843 141.843 115.921C140.51 114.588 139.255 113.176 138.157 111.608C138.392 109.961 138.706 108.392 138.941 106.823C139.176 104.863 139.333 102.902 139.725 100.941C139.804 100.549 139.961 99.9999 139.961 99.6078C140.196 97.5686 140.431 95.5293 140.667 93.4901C140.667 93.4117 140.667 93.4117 140.745 93.3333C140.98 93.098 141.216 92.7843 141.529 92.4705C141.608 92.3921 141.686 92.2352 141.608 92.0784C141.451 90.9019 141.294 89.7254 141.137 88.7058C141.451 88.3137 141.608 88.0784 141.686 87.9999C141.843 87.2941 142 86.8235 142.078 86.3529C142.157 86.4313 142.235 86.4313 142.314 86.5098C142.863 86.196 143.49 85.8823 144.039 85.5686C144.667 85.1764 145.294 84.7058 145.922 84.2353C147.333 83.0588 148.824 81.9607 150.235 80.7843C150.471 80.549 150.784 80.1568 150.784 79.8431C150.784 79.0588 150.784 78.2745 150.235 77.647C148.98 76.1568 147.882 74.5098 146.157 73.4117C145.765 73.1764 145.529 72.7843 145.216 72.4706C144.824 72.0784 144.588 71.6078 144.196 71.1372C143.647 70.5098 143.02 69.8823 142.941 69.0196C142.941 68.7058 142.706 68.4706 142.471 68.3137C141.843 68 141.373 67.9215 140.51 67.8431C139.333 67.6862 138.549 67.1372 137.843 66.2745C138.078 65.647 138.078 65.4117 138.314 64.7843C138.784 64.7059 139.176 64.549 139.647 64.4706C140.902 64.1568 141.373 63.2157 140.902 62.0392C140.667 61.5686 140.353 61.1765 140.118 60.7059C140.039 57.5686 138 56.0784 135.49 56C135.02 56 134.784 56 134.471 56.0784C133.451 56.2353 132.902 57.0196 132.431 57.8039C131.647 57.9608 130.784 57.8039 130.235 58.5098C130.078 58.6666 130.078 58.9804 130.235 59.1373L131.255 60.549C131.098 61.9608 131.255 63.2941 131.882 64.4706C130.941 65.8823 129.922 66.9019 128.353 67.3725C127.255 67.6863 126.157 68.1568 124.98 68.6274C124.824 68.7058 124.745 68.7843 124.667 68.9412C124.353 69.7255 123.961 70.5098 123.725 71.3725C123.49 72.1568 123.333 72.9411 123.098 73.8039C122.784 74.8235 122.863 75.8431 122.314 76.7843C121.608 78.1176 121.216 79.6078 120.431 80.9411C119.176 83.2156 118.471 85.7254 117.529 88.0784C117.137 88.9411 116.745 89.8823 116.51 90.8235C116.353 91.5294 116.039 91.9999 115.49 92.3137C114.235 92.8627 113.686 93.8823 113.137 94.9803C112.745 95.7646 112.51 96.5489 112.98 97.3333C113.059 97.4117 113.059 97.5686 113.059 97.647C112.902 98.1176 112.824 98.5097 112.745 98.9803C112.588 99.4509 112.431 99.8431 112.275 100.392C112.039 101.176 111.804 101.804 111.569 102.588C111.255 103.372 110.784 104.078 110.078 104.471C109.843 104.549 109.686 104.706 109.765 105.02C109.529 105.176 110.078 106.431 109.843 107.216ZM140.196 78.7451C140.667 78.1176 140.902 77.3333 141.216 76.6274C141.294 76.4705 141.451 76.3137 141.686 76.0784C142.863 77.098 144.196 77.9607 145.216 79.2941C144.039 81.0196 142.627 82.1176 140.667 82.745C140.353 82.5097 140.039 82.3529 139.725 82.1176C139.647 80.8627 139.49 79.7647 140.196 78.7451ZM132.196 105.961C131.961 104.706 132.51 103.529 132.98 102.353C132.98 103.765 132.98 105.255 132.98 106.823C132.667 106.51 132.431 106.274 132.196 105.961ZM136.431 119.137C136.745 119.372 137.059 119.608 137.451 119.921C138.078 119.608 138.706 119.294 139.333 118.98C139.882 120.078 140.51 121.098 141.059 122.196C139.882 122.039 138.706 121.961 137.451 122.039C136.745 122.118 136.118 122.196 135.412 122.274C135.804 121.255 136.118 120.235 136.431 119.137ZM134.235 132.078C138.941 129.412 142.627 131.686 144.039 133.255L130.392 141.098C129.765 139.216 129.686 134.745 134.235 132.078ZM147.804 143.059C147.412 145.333 146.706 147.451 143.961 149.098C140.51 151.137 136.196 150.745 133.608 147.451L153.922 135.765C154.627 136.706 155.49 137.412 156.431 138.274L147.804 143.059ZM163.02 115.529C167.725 112.863 171.412 115.137 172.824 116.706L159.176 124.549C158.549 122.588 158.392 118.196 163.02 115.529ZM176.824 126.431C176.431 128.706 175.725 130.823 172.98 132.47C169.529 134.51 165.216 134.118 162.627 130.823L183.961 118.51L185.608 121.333L176.824 126.431ZM200.98 83.1372L200.431 82.196L203.333 80.4705L203.882 81.4902L203.02 81.9607L204.824 85.1764L203.647 85.8823L201.843 82.6666L200.98 83.1372ZM207.49 83.6862L205.765 80.9411L208.196 83.2156L209.059 82.745L208.196 79.4509L209.843 82.2745L211.02 81.647L208.588 77.4117L207.02 78.2745L207.725 81.4117V81.4902L205.373 79.2941L203.882 80.0784L206.235 84.3921L207.49 83.6862Z" fill="white"/>
</svg>
