<svg width="100" height="100" viewBox="0 0 100 100" fill="none" xmlns="http://www.w3.org/2000/svg">
<rect width="100" height="100" fill="#FAFAFA"/>
<g clip-path="url(#clip0_108_2)">
<path d="M50 32.0968C59.8706 32.0968 67.9032 40.1294 67.9032 50C67.9032 59.8706 59.8706 67.9032 50 67.9032C40.1294 67.9032 32.0968 59.8706 32.0968 50C32.0968 40.1294 40.1294 32.0968 50 32.0968ZM50 13C29.5665 13 13 29.5665 13 50C13 70.4336 29.5665 87 50 87C70.4336 87 87 70.4336 87 50C87 29.5665 70.4336 13 50 13Z" fill="#181818"/>
</g>
<defs>
<clipPath id="clip0_108_2">
<rect width="74" height="74" fill="white" transform="translate(13 13)"/>
</clipPath>
</defs>
</svg>
