<svg xmlns="http://www.w3.org/2000/svg" viewBox="0 0 800 800"><path fill="#60cd18" d="M0 0h800v800H0z"/><path fill="#fff" d="m290.6 348.4-26 19.3c-12.1-10.5-28-12.6-36.6-12.6s-18 2.5-19.3 8.8c-1.4 6.1 4.3 10.9 14 13.6 11.2 3 21.3 5.6 37 10 23.2 6.7 39 16.8 39 40 0 32.2-28.4 48.9-66.7 48.9s-64.2-20-72-29.2l27.4-20.5c19.2 16.8 32.6 19.1 43.7 19.1 12.8 0 24.8-2.7 26.4-10 1.2-5.8-3.6-10.4-14.5-13-12.4-2.8-22.8-5.1-34.4-8.2-31.5-8.2-40.4-26.6-40.4-43 0-22.7 21-46 59.7-46a94.6 94.6 0 0 1 62.7 22.7m164.9-20.4H340V472h117.5v-33.2h-77v-23.3h53v-31.8h-53v-23h74.9zM310.3 505.4h9V294.6h-9zm162.4 0h9V294.6h-9zm29.8-33.3h92.7c24.7 0 44.8-15 44.8-38.8 0-18.7-12.2-31-29.3-36.5a9.6 9.6 0 0 0-1.7-.2 10.4 10.4 0 0 0 1.7-.3 33.1 33.1 0 0 0 20.6-31.8c0-22.3-19.7-36.6-44-36.6h-84.8zm40.7-114.2h32.4c7.4 0 13.5 6 13.5 12.7s-6 12.6-13.5 12.6h-32.4zm39.6 82.2h-39.6v-26.3h39.6a13.2 13.2 0 0 1 0 26.2z"/></svg>